{"title":"Vichitra Sodarulu (1989) Telugu Movie Torrent - teluguppls","uid":6340436,"size":733250107,"categoryP":"video","categoryS":"movies","magnet":"?xt=urn:btih:c871986ca21ea8e1ef6f9a444a476dd5f6980290&amp;dn=Vichitra+Sodarulu+%281989%29+Telugu+Movie+Torrent+-+teluguppls&amp;tr=udp%3A%2F%2Ftracker.openbittorrent.com%3A80&amp;tr=udp%3A%2F%2Fopen.demonii.com%3A1337&amp;tr=udp%3A%2F%2Ftracker.coppersurfer.tk%3A6969&amp;tr=udp%3A%2F%2Fexodus.desync.com%3A6969","seeders":0,"leechers":1,"uploader":"n1212","files":2,"time":1303640737,"description":"Vichitra Sodarulu (1989) Telugu Movie Torrent - teluguppls\n\n\nFor screenshots see the link below\n &lt;a href=&quot;\nhttp://teluguppls.blogspot.com/2011/04/vichitra-sodarulu-1989-dvdrip.html&quot; rel=&quot;nofollow&quot; target=&quot;_NEW&quot;&gt;\nhttp://teluguppls.blogspot.com/2011/04/vichitra-sodarulu-1989-dvdrip.html&lt;/a&gt;\n\n\nDescription\n\n\nGeneral\n\nFormat                           : MPEG-4\nCodec ID                         : isom\nFile size                        : 699 MiB\nDuration                         : 2h 17mn\nOverall bit rate                 : 711 Kbps\n\nVideo\n\nFormat                           : AVC\nFormat settings, ReFrames        : 5 frames\nCodec ID                         : avc1\nCodec ID/Info                    : Advanced Video Coding\nDuration                         : 2h 17mn\nBit rate mode                    : Variable\nBit rate                         : 642 Kbps\nMaximum bit rate                 : 3 360 Kbps\nWidth                            : 544 pixels\nHeight                           : 416 pixels\nDisplay aspect ratio             : 4:3\nColor space                      : YUV\nChroma subsampling               : 4:2:0\nBit depth                        : 8 bits\nStream size                      : 632 MiB (90%)\nWriting library                  : x264 core 59 r839M 27c3071\n\n\nAudio\n\nFormat                           : AAC\nFormat/Info                      : Advanced Audio Codec\nDuration                         : 2h 17mn\nBit rate mode                    : Variable\nBit rate                         : 66.15 Kbps\nMaximum bit rate                 : 77.5 Kbps\nChannel(s)                       : 2 channels\nChannel positions                : Front: L R\nSampling rate                    : 48.0 KHz / 24.0 KHz\nCompression mode                 : Lossy\nStream size                      : 64.4 MiB (9%)\n\n\n\nPost a comment........................","torrent":{"xt":"urn:btih:c871986ca21ea8e1ef6f9a444a476dd5f6980290","amp;dn":"Vichitra+Sodarulu+%281989%29+Telugu+Movie+Torrent+-+teluguppls","amp;tr":["udp%3A%2F%2Ftracker.openbittorrent.com%3A80","udp%3A%2F%2Fopen.demonii.com%3A1337","udp%3A%2F%2Ftracker.coppersurfer.tk%3A6969","udp%3A%2F%2Fexodus.desync.com%3A6969"],"infoHash":"c871986ca21ea8e1ef6f9a444a476dd5f6980290","infoHashBuffer":{"type":"Buffer","data":[200,113,152,108,162,30,168,225,239,111,154,68,74,71,109,213,246,152,2,144]},"announce":[],"urlList":[]}}